<?xml version="1.0" encoding="UTF-8" standalone="no"?>
<svg
   xmlns:osb="http://www.openswatchbook.org/uri/2009/osb"
   xmlns:dc="http://purl.org/dc/elements/1.1/"
   xmlns:cc="http://creativecommons.org/ns#"
   xmlns:rdf="http://www.w3.org/1999/02/22-rdf-syntax-ns#"
   xmlns:svg="http://www.w3.org/2000/svg"
   xmlns="http://www.w3.org/2000/svg"
   xmlns:sodipodi="http://sodipodi.sourceforge.net/DTD/sodipodi-0.dtd"
   xmlns:inkscape="http://www.inkscape.org/namespaces/inkscape"
   width="27px"
   height="32px"
   viewBox="0 0 27 32"
   version="1.1"
   id="svg76"
   sodipodi:docname="ic-logo-color.svg"
   inkscape:version="0.92.3 (2405546, 2018-03-11)">
  <sodipodi:namedview
     pagecolor="#ffffff"
     bordercolor="#666666"
     borderopacity="1"
     objecttolerance="10"
     gridtolerance="10"
     guidetolerance="10"
     inkscape:pageopacity="0"
     inkscape:pageshadow="2"
     inkscape:window-width="1600"
     inkscape:window-height="837"
     id="namedview78"
     showgrid="false"
     inkscape:zoom="20.875"
     inkscape:cx="8.1848313"
     inkscape:cy="16"
     inkscape:window-x="-8"
     inkscape:window-y="-8"
     inkscape:window-maximized="1"
     inkscape:current-layer="svg76" />
  <metadata
     id="metadata80">
    <rdf:RDF>
      <cc:Work
         rdf:about="">
        <dc:format>image/svg+xml</dc:format>
        <dc:type
           rdf:resource="http://purl.org/dc/dcmitype/StillImage" />
        <dc:title>ic_home</dc:title>
      </cc:Work>
    </rdf:RDF>
  </metadata>
  <!-- Generator: Sketch 41.2 (35397) - http://www.bohemiancoding.com/sketch -->
  <title
     id="title46">ic_home</title>
  <desc
     id="desc48">Created with Sketch.</desc>
  <defs
     id="defs63">
    <linearGradient
       inkscape:collect="always"
       id="linearGradient2611"
       osb:paint="gradient">
      <stop
         style="stop-color:#f8ba00;stop-opacity:1;"
         offset="0"
         id="stop2607" />
      <stop
         style="stop-color:#f8ba00;stop-opacity:0;"
         offset="1"
         id="stop2609" />
    </linearGradient>
    <filter
       id="filter-1"
       filterUnits="objectBoundingBox"
       height="200%"
       width="200%"
       y="-50%"
       x="-50%">
      <feOffset
         id="feOffset50"
         result="shadowOffsetOuter1"
         in="SourceAlpha"
         dy="2"
         dx="0" />
      <feGaussianBlur
         id="feGaussianBlur52"
         result="shadowBlurOuter1"
         in="shadowOffsetOuter1"
         stdDeviation="2" />
      <feColorMatrix
         id="feColorMatrix54"
         result="shadowMatrixOuter1"
         in="shadowBlurOuter1"
         type="matrix"
         values="0 0 0 0 0   0 0 0 0 0   0 0 0 0 0  0 0 0 0.05 0" />
      <feMerge
         id="feMerge60">
        <feMergeNode
           id="feMergeNode56"
           in="shadowMatrixOuter1" />
        <feMergeNode
           id="feMergeNode58"
           in="SourceGraphic" />
      </feMerge>
    </filter>
  </defs>
  <g
     fill-rule="evenodd"
     fill="none"
     stroke-width="1"
     stroke="none"
     id="OPt-2">
    <g
       fill="#000000"
       transform="translate(-10.000000, -15.000000)"
       id="prog2_pro3_Mobile-Portrait_opt2-Copy-2">
      <g
         id="nav">
        <g
           filter="url(#filter-1)"
           id="Group-6">
          <g
             transform="translate(14.000000, 17.000000)"
             id="ic_home">
            <g
               transform="translate(9.600000, 12.000000) scale(-1, 1) translate(-9.600000, -12.000000) "
               id="Group">
              <path
                 id="Shape"
                 d="M1.54193617,6.86168315 L2.43571158,7.55392864 L3.87545433,8.66895245 C4.06923009,7.69976605 4.63021858,6.86662549 5.40616036,6.32487541 L2.63452498,4.17832899 L3.49284767,3.03923189 C3.84364061,2.57346219 3.7557555,1.90734739 3.29636647,1.55149336 L1.20691034,4.32284141 C0.897541374,4.73336947 0.789504631,5.23491875 0.863954814,5.70775912 C0.933553447,6.15035349 1.16287475,6.56807048 1.54193617,6.86168315 L1.54193617,6.86168315 Z"
                 style="fill:#617200;fill-opacity:1;stroke:none;stroke-opacity:1;stroke-width:0.07559055;stroke-miterlimit:4;stroke-dasharray:none" />
              <path
                 id="path66"
                 d="M10.3270551,16.5512797 C7.23569404,14.9307587 4.48281066,14.4725332 3.78840902,15.5854991 C3.21809117,16.4994446 4.18836906,18.2327433 6.08768798,20.0078511 L4.28474375,22.9401937 L3.05678229,22.9401937 C2.4919686,22.955896 2.03855029,23.4237467 2.03855029,24 L3.63316466,24 L5.74725123,24 L6.39882979,22.9401937 L7.44365066,21.2407593 L7.85200696,20.5769145 C7.70795865,20.3377869 7.62427192,20.0574178 7.62427192,19.7568054 C7.62427192,18.8860169 8.32053925,18.1799601 9.1796089,18.1799601 C9.22728255,18.1799601 9.27383748,18.1845256 9.32039243,18.1886637 L10.3270551,16.5512797 L10.3270551,16.5512797 Z"
                 style="fill:#617200;fill-opacity:1;stroke:none;stroke-opacity:1;stroke-width:0.07559055;stroke-miterlimit:4;stroke-dasharray:none" />
              <path
                 id="path68"
                 d="M18.9736295,6.45285797 C18.8122278,5.66512147 18.1240763,5.07295379 17.2991546,5.07295379 C17.0636759,5.07295379 16.8393923,5.12138467 16.6354479,5.20850371 C16.0205326,5.47139789 15.5886665,6.08801776 15.5886665,6.80719856 L15.5886665,15.031192 C15.5886665,15.6170929 15.1201352,16.0924154 14.5418852,16.0924154 C14.1209352,16.0924154 13.7588539,15.8397624 13.5926925,15.4764587 C13.5779518,15.4442027 13.5647039,15.4108826 13.5531357,15.3770193 L12.5811787,12.9346842 L14.4678082,6.48085683 C14.4691145,6.47671864 14.4708884,6.47236733 14.4721947,6.46799264 C14.4951446,6.39572448 14.5152972,6.32345629 14.5349823,6.25099893 C15.2221064,3.72208965 13.9855616,1.08212917 11.6734091,0 L7.22972328,1.5664388 C6.68422148,1.75533853 6.39257914,2.35564117 6.57609195,2.90900269 L7.70142807,2.50102869 C8.14626298,2.33972627 8.63569336,2.57459741 8.79476236,3.02542165 C8.95383236,3.47624563 8.72217834,3.97266285 8.27743675,4.13387096 L7.11636848,4.55478059 C7.31910086,5.09868267 7.91638185,5.37678224 8.4559119,5.17598776 L9.68210049,4.71937003 C9.76914532,5.21959483 9.49187047,5.72535299 9.00421193,5.90195568 L6.65520655,6.76860507 C5.66421767,7.19805147 4.96132545,8.17575179 4.91262541,9.32522992 C4.91085254,9.36741741 4.907961,9.40941672 4.907961,9.45200605 C4.907961,9.47809045 4.91057264,9.503654 4.9113191,9.52957157 C4.90665468,9.51763005 4.9036688,9.50970768 4.9036688,9.50970768 L1.2371383,9.50970768 L1.2371383,8.07624109 C1.2371383,7.67564499 0.748547691,7.32726344 0.438898271,7.14659379 L0.190357927,7.01492213 L0.190357927,10.5278687 C0.203605979,11.5167308 0.997181326,12.3144227 1.97566885,12.3144227 L6.11129198,12.3144227 C6.47757115,12.3144227 6.83358838,12.3585969 7.17467825,12.4414836 C7.15801415,12.4373922 7.14160488,12.4312907 7.12502205,12.4264669 C7.14288813,12.4317872 7.16077729,12.437085 7.17897045,12.4414836 C7.18960562,12.4441081 7.20033511,12.4469463 7.21106457,12.4496888 C9.05421825,12.9121481 10.454031,14.5142711 10.6404363,16.4765768 C10.6436088,16.5108195 10.6456606,16.5454163 10.6481799,16.5800375 C10.6564834,16.6937358 10.6619876,16.8080018 10.6619876,16.9237834 C10.6619876,18.0284241 10.2784484,19.0420695 9.63937115,19.8360962 C9.59253628,19.8943421 9.5443018,19.9514974 9.49476199,20.0072836 C9.36424139,20.1958985 9.28689866,20.4251893 9.28689866,20.6732097 C9.28689866,21.3151083 9.80030631,21.835553 10.4335061,21.835553 C10.6613345,21.835553 10.87349,21.7682027 11.0518718,21.6522563 L13.3733552,20.2630839 C13.6936403,20.4447001 13.9102726,20.7912598 13.9102726,21.1897034 C13.9102726,21.4530233 13.8156698,21.6942322 13.6589335,21.8796326 L12.6955589,22.9401937 L11.5204041,22.9401937 L11.5198443,22.9401937 L11.4629331,22.9401937 C10.8983061,22.955896 10.4448878,23.4237467 10.4448878,24 L12.5380762,24 L12.5384495,24 L13.8022354,24 C13.8022354,22.9995972 14.6020622,22.1887573 15.5886665,22.1887573 L15.5886665,19.0992025 C14.7699955,18.9338562 14.1528427,18.2019287 14.1528427,17.3233378 C14.1528427,17.2792826 14.1548935,17.235557 14.1579737,17.1920695 C14.2626519,17.2079366 14.3686363,17.2189087 14.4776989,17.2189087 C14.8846546,17.2189087 15.2638103,17.1025614 15.5886665,16.9039429 C16.2152424,16.5210103 16.6354479,15.8267314 16.6354479,15.031192 L16.6354479,6.80719859 C16.6354479,6.42400717 16.941831,6.11348621 17.3196784,6.11348621 C17.6841857,6.11348621 17.9813343,6.40272419 18.0018602,6.76730448 C17.531834,7.09352773 17.2232114,7.64114277 17.2232114,8.26230264 C17.2232114,9.26260984 18.0229439,10.0734507 19.0096426,10.0734507 L19.0096426,6.80719859 C19.0096425,6.68574269 18.9971412,6.56740824 18.9736295,6.45285797 L18.9736295,6.45285797 Z" />
            </g>
          </g>
        </g>
      </g>
    </g>
  </g>
  <path
     inkscape:connector-curvature="0"
     id="path82"
     d="M 9.3899722,25.696626 C 9.244846,24.916249 8.6178714,24.28963 7.8832335,24.190742 L 7.6556886,24.160112 V 22.6372 21.114286 l 0.2275449,-0.0769 c 0.6543108,-0.221115 1.1616767,-0.9265 1.1616767,-1.615064 V 19.190419 L 8.745509,19.189851 C 7.9118873,19.188267 7.1861547,18.724429 6.8022978,17.947883 L 6.6257485,17.590723 6.6002445,13.06123 C 6.5862173,10.570009 6.5700496,8.5270975 6.5643164,8.5214275 6.5585831,8.5157571 6.4872524,8.4352196 6.4058037,8.3424546 6.0431119,7.9293715 5.3645011,8.0738568 5.2147384,8.5960489 5.1737453,8.7389835 5.1864988,8.7645715 5.4102606,8.9883329 5.5419173,9.1199895 5.707585,9.3513547 5.778411,9.5024771 5.8925526,9.746023 5.9071856,9.8344019 5.9071856,10.28024 c 0,0.480926 -0.00713,0.516133 -0.1624164,0.802495 -0.2800444,0.516412 -0.7694114,0.869805 -1.3132781,0.948376 L 4.2013056,12.064365 4.2159222,10.22504 4.2305389,8.3857154 4.3882877,8.065429 C 4.5792122,7.6777844 4.9290484,7.3521025 5.3083832,7.2088623 5.6878505,7.0655717 6.2842498,7.0971689 6.6393606,7.2793768 6.9871276,7.457817 7.253873,7.7394927 7.4328743,8.1173054 l 0.150958,0.3186227 0.023952,4.4790419 c 0.026368,4.9308 0.00486,4.601035 0.3190766,4.892735 0.3271556,0.303714 0.8276438,0.382141 1.2062063,0.189013 0.3326381,-0.1697 0.4465293,-0.370396 0.9838598,-1.733736 0.279852,-0.710053 0.508822,-1.313362 0.508822,-1.340688 0,-0.02733 -0.411347,-1.454823 -0.9141036,-3.172216 C 8.453986,7.4539708 8.561886,7.8842572 8.5322139,7.0467066 8.5124679,6.4893377 8.5248745,6.2314273 8.5875197,5.897006 8.8666162,4.407092 9.6851229,3.176613 10.936926,2.3650918 c 0.237235,-0.1537956 0.474797,-0.290767 0.527913,-0.3043809 0.113367,-0.029056 4.401177,1.4645925 4.704546,1.6388173 0.258926,0.1487006 0.443301,0.4575657 0.473986,0.7940212 0.03679,0.4033512 0.02053,0.4073322 -0.652615,0.1597784 C 15.32896,4.4099461 15.11306,4.3885932 14.807861,4.5363377 c -0.515771,0.2496804 -0.624924,1.0271965 -0.19864,1.414945 0.151096,0.1374371 0.307627,0.2099493 0.914731,0.4237437 0.283234,0.099742 0.51497,0.1968225 0.51497,0.2157344 0,0.018912 -0.06207,0.1200753 -0.137941,0.2248076 C 15.808339,6.9434563 15.67918,7.0420661 15.50768,7.1158438 15.164403,7.2635171 14.931751,7.2323243 14.146707,6.933371 l -0.622755,-0.2371515 -0.01473,0.2423467 c -0.01807,0.2972901 0.127067,0.609647 0.374226,0.8053926 0.103363,0.081862 0.671638,0.3177418 1.484815,0.6163186 1.420496,0.5215674 1.787522,0.7161489 2.149417,1.1395305 0.380796,0.4454927 0.651778,1.0181971 0.704695,1.4893311 0.01391,0.123878 0.03589,0.295292 0.04884,0.380921 l 0.02354,0.155689 h 1.84214 1.842141 v -0.768376 c 0,-0.8848628 0.0403,-1.0183967 0.394071,-1.3058803 0.221337,-0.179862 0.51692,-0.3683909 0.57803,-0.3686788 0.02088,-9.58e-5 0.03166,0.8674855 0.02395,1.9279641 l -0.01402,1.928144 -0.134108,0.287425 c -0.245736,0.52667 -0.716927,0.90675 -1.269448,1.023982 -0.16817,0.03568 -1.04393,0.05386 -2.594588,0.05386 -2.51471,0 -2.705337,0.01437 -3.40158,0.256504 -1.23159,0.428305 -2.3259,1.521269 -2.756162,2.752772 -0.197279,0.564658 -0.268963,0.993882 -0.269465,1.613478 -8.67e-4,1.070927 0.29384,1.96855 0.918467,2.797491 0.335654,0.445447 0.42904,0.645688 0.42904,0.919963 0,0.305417 -0.09428,0.554743 -0.296737,0.784749 -0.240101,0.272769 -0.511778,0.377787 -0.910763,0.352057 -0.291547,-0.0188 -0.343193,-0.0445 -1.567166,-0.779803 C 9.8897974,22.269224 9.8383665,22.243577 9.7209768,22.309466 9.6539272,22.3471 9.5346577,22.469537 9.4559334,22.581548 9.342285,22.74325 9.308789,22.848171 9.293336,23.090858 c -0.010705,0.168109 0.00583,0.382305 0.036754,0.475991 0.032664,0.09897 0.2780756,0.417055 0.5857739,0.75923 l 0.5295581,0.588891 0.748846,0.02705 c 0.846028,0.03056 0.994555,0.07515 1.271479,0.381667 0.146642,0.162317 0.266745,0.435837 0.267519,0.609245 1.91e-4,0.04675 -0.360375,0.05988 -1.643972,0.05988 H 9.4450544 Z"
     style="stroke-width:0.04790419;opacity:1" />
  <path
     style="stroke-width:0.04790419"
     d="M 9.3875468,25.704225 C 9.2513231,24.930871 8.6241624,24.301427 7.8832335,24.194435 L 7.6556886,24.161575 V 22.64474 21.127905 l 0.316603,-0.137928 c 0.602667,-0.26255 1.0162138,-0.834793 1.0617735,-1.469224 l 0.022719,-0.31637 -0.4399811,-0.02509 C 8.2369207,19.157639 8.1292846,19.130718 7.8288036,18.982212 7.3737286,18.757302 7.032915,18.414424 6.8038759,17.951078 L 6.6257485,17.590726 6.6017964,13.085184 6.5778443,8.5796407 6.4662832,8.4232292 C 6.2962778,8.1848776 6.0841409,8.0967708 5.7292118,8.1171008 5.5572284,8.1269519 5.2709016,8.3833337 5.2205875,8.5725317 c -0.03664,0.1377816 -0.019404,0.1736015 0.199357,0.4142946 0.131706,0.1449102 0.2952149,0.382036 0.3633533,0.5269462 0.1086533,0.2310735 0.1238878,0.3253264 0.1238878,0.7664675 0,0.480926 -0.00713,0.516133 -0.1624164,0.802495 -0.2800444,0.516412 -0.7694114,0.869805 -1.3132781,0.948376 L 4.2013056,12.064365 4.2159222,10.22504 4.2305389,8.3857154 4.3876922,8.066639 C 4.5814392,7.6732637 4.9211587,7.3547037 5.2987242,7.2123511 5.6695577,7.072536 6.2736452,7.0965456 6.6257485,7.2650937 6.9564652,7.4234046 7.2515574,7.7345413 7.4317655,8.114936 l 0.1520668,0.3209921 0.024602,4.4550899 c 0.019362,3.506305 0.037865,4.485696 0.08688,4.598802 0.2976744,0.686909 1.3411178,0.81484 1.7738426,0.217481 0.078503,-0.10837 0.3738175,-0.775518 0.6562551,-1.482553 L 10.638935,14.939232 9.6494587,11.543868 C 9.1052465,9.6764172 8.6259834,7.9868263 8.5844294,7.7892216 8.4668849,7.2302529 8.516548,6.0432263 8.6826366,5.4419162 8.9384977,4.5155911 9.5061097,3.5742773 10.191421,2.9397841 10.534633,2.622022 11.047536,2.2558716 11.354483,2.1094988 l 0.177215,-0.084508 2.217684,0.7790874 c 1.219726,0.428498 2.308728,0.831412 2.420003,0.8953644 0.25893,0.148812 0.443307,0.4577131 0.473986,0.7941065 0.03666,0.40194 0.02314,0.4051432 -0.670898,0.1589385 -0.626689,-0.2223136 -0.833293,-0.2543457 -1.068157,-0.165608 -0.16748,0.063278 -0.384076,0.264656 -0.477882,0.4443042 -0.09124,0.1747331 -0.09139,0.6067675 -2.88e-4,0.7819432 0.148565,0.2856224 0.316048,0.3866036 1.097794,0.6618991 0.283233,0.099742 0.51497,0.1968225 0.51497,0.2157344 0,0.018912 -0.06217,0.1202021 -0.138145,0.2250893 -0.331807,0.4580459 -0.800344,0.490467 -1.754071,0.1213753 l -0.622754,-0.2410059 -0.01432,0.23065 c -0.01895,0.3051118 0.136734,0.6373513 0.381858,0.8149183 0.101363,0.073428 0.777761,0.3542424 1.503107,0.6240326 1.063175,0.3954462 1.382706,0.5354016 1.648453,0.7220282 0.709726,0.4984211 1.100784,1.2039597 1.225129,2.2103557 l 0.02811,0.227545 h 1.841376 1.841376 v -0.768376 c 0,-0.8848631 0.0403,-1.018397 0.394071,-1.3058806 0.221338,-0.179862 0.516921,-0.3683909 0.578031,-0.3686788 0.02088,-9.58e-5 0.03166,0.8674855 0.02395,1.9279644 l -0.01401,1.928144 -0.148909,0.311377 c -0.188513,0.394193 -0.483857,0.689269 -0.881031,0.88023 l -0.311378,0.149711 -2.658682,0.02722 c -2.870714,0.02939 -2.757787,0.01954 -3.524132,0.307249 -1.454188,0.545941 -2.59496,1.963449 -2.849382,3.540605 -0.08382,0.519586 -0.03513,1.536714 0.0951,1.98661 0.156765,0.541565 0.323536,0.903165 0.618998,1.342144 0.148605,0.220786 0.332647,0.495755 0.408984,0.611042 0.265394,0.400809 0.215182,0.948538 -0.122081,1.331688 -0.242584,0.27559 -0.512746,0.380353 -0.912835,0.353979 -0.288907,-0.01905 -0.348449,-0.04795 -1.427397,-0.692987 -1.5242489,-0.911251 -1.4094532,-0.85761 -1.5782033,-0.737449 -0.2025893,0.144256 -0.3859282,0.543446 -0.3846506,0.837511 0.00175,0.403361 0.1186161,0.587291 0.9375629,1.475624 l 0.253934,0.275449 h 0.598973 c 0.768331,0 1.016097,0.05354 1.275536,0.275605 0.208469,0.178442 0.37912,0.478769 0.380992,0.670503 l 0.0011,0.107784 H 11.085957 9.4383808 Z"
     id="path128"
     inkscape:connector-curvature="0" />
  <path
     style="stroke-width:0.04790419;opacity:1"
     d="M 9.4026807,25.789222 C 9.2688934,24.98536 8.7523198,24.412844 7.9962505,24.230482 l -0.3398859,-0.08198 -3.38e-4,-1.512143 -3.38e-4,-1.512143 0.2674862,-0.110867 c 0.5995158,-0.248485 1.0586901,-0.874106 1.1099136,-1.512247 l 0.023817,-0.296711 -0.4400421,-0.02509 C 8.2369139,19.157638 8.1292965,19.130724 7.8288036,18.982212 7.3737453,18.75731 7.0329178,18.414425 6.8038759,17.951097 L 6.6257485,17.590763 6.6017964,13.085202 6.5778443,8.5796407 6.4662832,8.4232292 C 6.1778503,8.0188393 5.5538737,8.020479 5.3064439,8.4262759 5.1700297,8.6500024 5.18787,8.7298501 5.4354657,9.003738 5.5580556,9.1393456 5.714343,9.3688604 5.7827711,9.5137705 c 0.109577,0.2320518 0.1243134,0.3234597 0.1235666,0.7664675 -7.258e-4,0.430585 -0.017099,0.535957 -0.1137364,0.731978 -0.2597553,0.52689 -0.8239097,0.951154 -1.3606258,1.02324 l -0.2297012,0.03085 0.014132,-1.840288 0.014132,-1.8402888 0.1571533,-0.319085 C 4.5814383,7.6732637 4.9211515,7.3547066 5.2987242,7.2123511 5.5213108,7.1284292 5.6473366,7.1128532 5.9797285,7.1281811 6.666025,7.1598295 7.0951273,7.4422017 7.4028537,8.064674 l 0.1809786,0.3660853 0.024796,4.4576747 c 0.027448,4.934481 0.00816,4.65449 0.3399482,4.934236 0.2522926,0.212717 0.455165,0.278287 0.7942262,0.256697 0.2367824,-0.01508 0.3431316,-0.04933 0.5038205,-0.162266 0.2534194,-0.178109 0.3351573,-0.338565 0.9282748,-1.822242 L 10.636799,14.939418 9.6276096,11.472104 C 9.0725552,9.5650817 8.5930318,7.8559923 8.5620016,7.6741274 8.4693653,7.1311962 8.5308852,5.9936053 8.6824411,5.4470306 9.0592704,4.0880245 9.9442951,2.9279365 11.13513,2.2320525 c 0.180082,-0.1052337 0.354848,-0.1913339 0.388369,-0.1913339 0.121383,0 4.44883,1.5446382 4.645886,1.6583019 0.25895,0.149364 0.443335,0.4584434 0.473986,0.7945289 0.03655,0.4007774 0.0245,0.4035969 -0.679383,0.1589633 -0.340822,-0.1184516 -0.690595,-0.2156407 -0.777274,-0.2159756 -0.184813,-7.142e-4 -0.469505,0.1348575 -0.617655,0.2941303 -0.310996,0.3343458 -0.269712,0.9599924 0.08293,1.2567169 0.074,0.062269 0.416337,0.2158641 0.760744,0.3413219 0.344407,0.1254578 0.626114,0.2413255 0.626015,0.2574838 -5.8e-4,0.095152 -0.216532,0.3560031 -0.389473,0.4704505 -0.169338,0.1120618 -0.252426,0.1335487 -0.51684,0.1336536 -0.259393,9.58e-5 -0.421732,-0.040082 -0.918726,-0.2274198 -0.332014,-0.1251497 -0.63109,-0.227545 -0.664615,-0.227545 -0.114445,0 -0.03318,0.4975138 0.12234,0.74895 0.175893,0.2843799 0.266648,0.3300488 1.805715,0.9086591 0.78249,0.2941759 1.314307,0.5234736 1.510347,0.6511981 0.718318,0.4680024 1.160323,1.2373305 1.281278,2.2301145 l 0.03064,0.251498 h 1.836728 1.836728 l 0.01506,-0.834034 0.01506,-0.8340336 0.146664,-0.1839305 c 0.140366,-0.1760316 0.698122,-0.5911162 0.794293,-0.5911162 0.02893,0 0.04067,0.725303 0.03158,1.9520963 l -0.01446,1.952095 -0.150639,0.287425 c -0.200301,0.382184 -0.499745,0.673788 -0.879301,0.856278 l -0.311378,0.149711 -2.63473,0.0292 c -2.84962,0.03158 -2.84985,0.0316 -3.562681,0.313577 -1.298421,0.513615 -2.288282,1.612163 -2.722081,3.020967 -0.119932,0.389488 -0.129504,0.482858 -0.129081,1.25901 3.83e-4,0.711277 0.01628,0.896402 0.10488,1.221557 0.134601,0.493993 0.460114,1.152848 0.798498,1.616203 0.318312,0.435869 0.408669,0.635666 0.408669,0.903646 0,0.305417 -0.09428,0.554743 -0.296737,0.784749 -0.240654,0.273397 -0.51147,0.377727 -0.913968,0.352098 -0.293945,-0.01872 -0.345951,-0.04401 -1.475135,-0.717433 -1.5194984,-0.906199 -1.3607942,-0.83201 -1.5268714,-0.713753 -0.1982639,0.141176 -0.3860915,0.543669 -0.3860915,0.82735 0,0.403531 0.137189,0.621602 0.9040059,1.436979 l 0.305204,0.324532 h 0.590642 c 0.769172,0 1.031719,0.0576 1.279084,0.280616 0.201658,0.181807 0.367308,0.480466 0.369114,0.665492 l 0.0011,0.107784 H 11.085049 9.4365653 Z"
     id="path130"
     inkscape:connector-curvature="0" />
  <path
     inkscape:connector-curvature="0"
     id="path180"
     d="M 9.3855463,25.712937 C 9.233337,24.939272 8.6692616,24.362783 7.9165546,24.211618 l -0.260866,-0.05239 V 22.641723 21.124217 L 7.9212675,21.01414 C 8.513596,20.768634 8.9822261,20.134744 9.0322659,19.511355 l 0.02464,-0.306963 -0.4400421,-0.02509 C 8.2369139,19.157638 8.1292965,19.130724 7.8288036,18.982212 7.3928227,18.766739 7.0517812,18.430786 6.8103156,17.978921 L 6.6257485,17.633533 6.6012729,13.106587 C 6.5780466,8.8106956 6.5722923,8.57296 6.4885318,8.4487478 6.2043774,8.0273629 5.5571779,8.0150601 5.3064439,8.4262778 5.1720941,8.6466184 5.1870114,8.7153241 5.4281514,8.986835 c 0.1185671,0.1335003 0.2748545,0.3551779 0.3473054,0.492617 0.120574,0.2287286 0.1317288,0.2945116 0.1317288,0.776835 0,0.455032 -0.015232,0.557874 -0.1116089,0.753564 C 5.53639,11.53612 4.9682665,11.963429 4.4319994,12.035454 l -0.2296772,0.03085 0.014108,-1.863091 0.014108,-1.8630912 0.163961,-0.3023996 c 0.2048269,-0.3777706 0.548744,-0.6914999 0.904225,-0.8248566 0.2193832,-0.0823 0.353261,-0.099255 0.6803177,-0.086159 0.6641875,0.026595 1.0920953,0.3016905 1.4179301,0.9115655 l 0.1868603,0.3497524 0.030684,4.4550905 c 0.016876,2.450299 0.047063,4.518179 0.067083,4.595288 0.020019,0.07711 0.1247742,0.228443 0.232789,0.336295 0.373188,0.372628 0.9556078,0.417572 1.380057,0.106494 0.1822151,-0.133544 0.3898817,-0.558181 0.8976137,-1.835446 L 10.632803,14.937001 9.7705466,11.97389 C 8.6315875,8.0599028 8.6285854,8.0492733 8.5692609,7.7205432 8.4954033,7.3112819 8.5061604,6.3365248 8.5898293,5.8567314 8.7206714,5.1064275 9.0863904,4.2767124 9.5796081,3.6111972 9.9948675,3.0508741 10.791048,2.3769266 11.353428,2.1097015 l 0.176782,-0.084001 0.805254,0.2773485 c 1.830591,0.6304985 3.721582,1.321895 3.875357,1.4169331 0.223293,0.1380022 0.404072,0.4613056 0.43255,0.7735672 0.03619,0.3968511 0.01985,0.4016788 -0.619518,0.1829297 -0.307859,-0.1053297 -0.64308,-0.2048345 -0.744935,-0.2211219 -0.249018,-0.03982 -0.57462,0.1069997 -0.751456,0.3388432 -0.27084,0.35509 -0.191684,0.9661081 0.157082,1.212537 0.07305,0.051616 0.407672,0.1974321 0.7436,0.324035 0.335928,0.1266028 0.610698,0.2424742 0.610599,0.2574917 -6.13e-4,0.093455 -0.218351,0.3551131 -0.389862,0.4685014 -0.175972,0.1163377 -0.246036,0.1330453 -0.540792,0.1289591 -0.279523,-0.00388 -0.441584,-0.043591 -0.928493,-0.227545 C 13.85517,6.835612 13.569541,6.7353293 13.544865,6.7353293 c -0.06,0 -0.05648,0.2676206 0.0065,0.4944087 0.02795,0.1006673 0.125947,0.2661825 0.217763,0.3678117 0.187944,0.2080316 0.36852,0.2904685 1.897083,0.8660613 1.178573,0.4438007 1.350942,0.537268 1.770916,0.9602793 0.467298,0.4706759 0.740261,1.0704627 0.831201,1.8264087 l 0.03314,0.27545 h 1.835704 1.835703 l 0.01506,-0.834034 0.01506,-0.8340336 0.146664,-0.1839305 c 0.140023,-0.175601 0.698033,-0.5911162 0.793832,-0.5911162 0.02832,0 0.04028,0.7392034 0.03158,1.9520963 l -0.014,1.952095 -0.151336,0.289414 c -0.201298,0.384958 -0.49923,0.675143 -0.878604,0.855758 l -0.311378,0.148242 -2.610778,0.03118 c -2.877816,0.03437 -2.939245,0.0402 -3.647579,0.346444 -0.95156,0.411399 -1.668119,1.035865 -2.177709,1.897827 -0.481153,0.813862 -0.670756,1.597228 -0.626105,2.586826 0.04497,0.996592 0.274434,1.659314 0.874749,2.52635 0.376802,0.544216 0.450987,0.705729 0.450628,0.981093 -4.31e-4,0.320154 -0.08047,0.5338 -0.288604,0.770256 -0.248537,0.282353 -0.514944,0.386941 -0.919927,0.361154 -0.292018,-0.01859 -0.346344,-0.04519 -1.528233,-0.748228 -0.673998,-0.400922 -1.2686782,-0.728948 -1.3215103,-0.728948 -0.052832,0 -0.1548915,0.05883 -0.226799,0.130741 -0.2230424,0.223042 -0.2868771,0.391954 -0.2882453,0.76272 -0.00116,0.314859 0.012296,0.361966 0.1664005,0.582469 0.092216,0.131948 0.3580029,0.446657 0.5906381,0.699353 l 0.422974,0.459447 h 0.592633 c 0.771178,0 1.033573,0.05748 1.281074,0.280616 0.201658,0.181807 0.367308,0.480466 0.369114,0.665492 l 0.0011,0.107784 H 11.087071 9.4406089 Z"
     style="stroke-width:0;opacity:1;stroke:none;stroke-opacity:1;stroke-miterlimit:4;stroke-dasharray:none;fill:#617200;fill-opacity:1" />
  <path
     style="stroke-width:0.18897638;fill:none;fill-opacity:1;stroke:none;stroke-opacity:1;stroke-miterlimit:4;stroke-dasharray:none"
     d="M 9.3592771,25.640043 C 9.1947813,24.900667 8.6469979,24.358312 7.9165546,24.211618 l -0.260866,-0.05239 V 22.638471 21.117714 L 7.9183755,21.011097 C 8.540432,20.758623 9.0449102,20.027837 9.0449102,19.379201 V 19.202138 L 8.6180593,19.18173 C 8.2438628,19.16384 8.1463786,19.139166 7.8277893,18.981711 7.3633841,18.752189 7.0402618,18.42661 6.7995189,17.94562 L 6.6151493,17.577261 6.5923071,13.096208 C 6.5703676,8.7922644 6.5658437,8.6089883 6.4778462,8.4591037 6.2271581,8.0321107 5.5582114,8.0133653 5.3064439,8.4262778 5.1720941,8.6466184 5.1870114,8.7153241 5.4281514,8.986835 c 0.1185671,0.1335003 0.2748545,0.3551779 0.3473054,0.492617 0.120574,0.2287286 0.1317288,0.2945116 0.1317288,0.776835 0,0.455032 -0.015232,0.557874 -0.1116089,0.753564 -0.2587655,0.525414 -0.827308,0.953586 -1.361445,1.025311 l -0.2275449,0.03055 V 10.245283 8.4248484 L 4.3747367,8.0887368 C 4.5575848,7.723245 4.839125,7.4294218 5.1718844,7.256811 5.4864007,7.0936637 6.1451795,7.0727995 6.5202067,7.2141083 6.8738055,7.3473432 7.2534046,7.7118611 7.4433732,8.1005988 l 0.1404591,0.2874252 0.026976,4.459036 0.026976,4.459037 0.1167367,0.235321 c 0.2879645,0.580487 1.1473086,0.725125 1.6026829,0.26975 0.1775636,-0.177563 0.2768628,-0.387758 0.8102901,-1.715211 L 10.631359,14.941614 9.642217,11.545059 C 9.0981897,9.6769533 8.6226757,7.990319 8.58552,7.7969835 8.4973664,7.3382865 8.4992593,6.3760988 8.5893313,5.8595876 8.8137338,4.5727681 9.5714261,3.3563633 10.647391,2.5555641 c 0.373481,-0.2779678 0.78389,-0.5148455 0.89201,-0.5148455 0.05941,0 1.799904,0.6043476 3.461898,1.2020699 0.575415,0.2069432 1.119917,0.4218145 1.210004,0.4774917 0.222848,0.1377273 0.403611,0.4612374 0.432068,0.7732692 0.01273,0.1395658 0.0051,0.2799904 -0.01705,0.3120546 -0.03024,0.043853 -0.205559,0.00414 -0.707546,-0.16025 -0.742725,-0.2432336 -0.870787,-0.2476166 -1.183739,-0.040515 -0.353767,0.2341122 -0.468688,0.722524 -0.264973,1.1261307 0.128877,0.2553366 0.274027,0.3433881 1.024526,0.6215061 0.342822,0.1270418 0.544336,0.2268463 0.544336,0.2695945 0,0.1127173 -0.403805,0.4800417 -0.59827,0.5442209 -0.271626,0.089645 -0.602424,0.034208 -1.260272,-0.2112039 -0.323994,-0.120867 -0.609623,-0.2197581 -0.634731,-0.2197581 -0.07002,0 -0.05425,0.2988978 0.02807,0.5322204 0.08625,0.2444546 0.265993,0.4481672 0.501133,0.5679578 0.09222,0.046979 0.695809,0.2844676 1.341318,0.5277529 0.645509,0.2432852 1.292215,0.5085317 1.437125,0.5894361 0.144911,0.080905 0.403617,0.2887469 0.574903,0.4618721 0.48084,0.486001 0.749265,1.0723475 0.840384,1.8357305 l 0.03288,0.27545 h 1.838791 1.838792 V 10.715101 9.9044541 l 0.15756,-0.2065743 c 0.159124,-0.2086266 0.676667,-0.6105605 0.790089,-0.6135996 0.0492,-0.00132 0.05873,0.3868882 0.0479,1.9504508 l -0.01352,1.952095 -0.139502,0.275433 c -0.180844,0.357059 -0.497961,0.675161 -0.862585,0.865264 l -0.291326,0.151889 -2.562875,0.03001 c -1.600226,0.01874 -2.686849,0.05113 -2.892935,0.08624 -0.753678,0.128396 -1.59527,0.570495 -2.210645,1.16128 -1.041349,0.999737 -1.527217,2.220142 -1.442076,3.62221 0.05844,0.962419 0.284507,1.609466 0.863683,2.472069 0.415942,0.619489 0.460417,0.720033 0.460417,1.040866 0,0.289583 -0.08139,0.495879 -0.288873,0.732188 -0.250377,0.285163 -0.479135,0.377883 -0.880407,0.356846 L 12.37425,23.763311 11.216618,23.079022 C 10.579921,22.70266 9.9928651,22.369772 9.9120503,22.339269 9.7755636,22.28775 9.752995,22.295553 9.5946889,22.448989 c -0.3252393,0.315235 -0.3946951,0.919969 -0.1484063,1.292136 0.062113,0.09386 0.3216154,0.401761 0.5766704,0.684225 l 0.463738,0.513572 h 0.594117 c 0.772676,0 1.034957,0.05739 1.282559,0.280616 0.201658,0.181807 0.367308,0.480466 0.369114,0.665492 l 0.0011,0.107784 H 11.085647 9.437761 Z"
     id="path308"
     inkscape:connector-curvature="0" />
</svg>
